<svg width="249" height="145" viewBox="0 0 249 145" fill="none" xmlns="http://www.w3.org/2000/svg">
<g filter="url(#filter0_ii)">
<circle cx="72.5" cy="72.5" r="72.5" fill="url(#paint0_linear)"/>
</g>
<path d="M66.8428 37.334C59.1336 37.9308 54.5619 38.0979 53.1276 37.8353C51.7053 37.5727 50.8747 37.4474 50.6356 37.4593C49.9782 37.4832 49.4643 37.7279 49.0938 38.1933C48.7711 38.5992 48.5739 39.0587 48.5021 39.5719C48.4304 40.109 48.5081 40.5984 48.7352 41.04C49.2013 41.959 50.2113 42.4484 51.7651 42.5081C52.052 42.52 52.3806 42.52 52.7512 42.5081L53.2352 42.4902L53.7014 42.4723C54.4902 42.4364 55.0579 42.4364 55.4045 42.4723C57.054 42.6752 58.1476 43.3376 58.6854 44.4595C58.9962 45.1399 59.0619 47.0854 58.8826 50.296C58.7034 53.5067 58.7392 56.8248 58.9902 60.2503C59.2532 63.6758 59.4265 65.5258 59.5101 65.8004C59.7372 66.5284 60.2571 66.982 61.0699 67.161C61.9424 67.3639 62.6536 67.1371 63.2034 66.4807C63.6934 65.8958 63.9384 65.1558 63.9384 64.2607C63.9384 63.1984 64.0281 61.8019 64.2074 60.0713C64.3866 58.3287 64.1954 53.6201 63.6336 45.9455C63.5978 44.6207 63.8428 43.7494 64.3687 43.3316C65.4325 42.52 66.6217 42.1321 67.9364 42.1679C69.2631 42.2037 70.1058 42.2156 70.4643 42.2037C71.4325 42.1679 72.2452 42.0127 72.9026 41.7382C73.7632 41.3921 74.2233 40.7297 74.2831 39.7509C74.3428 38.7722 73.9723 38.0442 73.1715 37.5667C72.7054 37.2922 72.042 37.149 71.1815 37.137C70.9066 37.1251 70.542 37.1311 70.0878 37.155L69.5679 37.1729C69.3767 37.1848 69.2153 37.1908 69.0839 37.1908C68.4862 37.1908 67.7392 37.2385 66.8428 37.334Z" fill="black"/>
<path d="M91.566 45.9276C90.7771 44.2686 89.5879 43.5226 87.9982 43.6897C86.552 43.8329 86.0142 44.6803 86.3847 46.232C86.5042 46.7452 86.7433 47.3837 87.1018 48.1476L87.317 48.5773L87.5142 48.9891C87.6696 49.3233 87.7771 49.556 87.8369 49.6873C88.6855 51.597 88.9425 53.8349 88.6078 56.4011C88.2492 59.2298 87.2512 61.1813 85.6138 62.2555C84.299 63.1148 83.0201 63.3774 81.7771 63.0432C80.6895 62.7568 79.7094 62.0466 78.8369 60.9127C78.0361 59.8743 77.4325 58.639 77.0261 57.2067C76.6317 55.8103 76.5002 54.5212 76.6317 53.3396C76.6795 52.9457 76.8408 52.1878 77.1157 51.0659C77.2592 50.5168 77.3667 50.0812 77.4385 49.7589C77.546 49.2696 77.6237 48.828 77.6715 48.4341C77.9345 46.2976 77.3727 44.9071 75.9863 44.2626C74.3727 43.5106 73.1655 43.7911 72.3647 45.104C71.7074 46.1783 71.3488 47.9029 71.289 50.2781C71.2532 52.1759 71.3966 54.2527 71.7193 56.5085C72.0062 58.454 72.293 59.7729 72.5799 60.4651C73.5719 62.8165 75.2512 64.5113 77.6177 65.5497C79.8409 66.5284 82.2612 66.7671 84.8787 66.2658C87.568 65.7526 89.5819 64.1771 90.9206 61.5393C91.9724 59.4387 92.5401 56.8308 92.6237 53.7156C92.6477 53.1188 92.6536 52.5638 92.6417 52.0506C92.6297 51.3225 92.5939 50.6422 92.5341 50.0096C92.3787 48.3147 92.056 46.9541 91.566 45.9276Z" fill="black"/>
<path d="M99.3648 50.9047C99.4485 49.926 99.825 48.9294 100.494 47.9149C101.14 46.9362 101.917 46.1424 102.825 45.5337C103.769 44.8773 104.666 44.5729 105.514 44.6207C106.458 44.6565 107.211 45.1339 107.773 46.0529C108.419 47.0316 108.514 48.0641 108.06 49.1502C107.69 50.0454 106.996 50.8809 105.98 51.6567C105.813 51.788 105.634 51.9193 105.443 52.0506C105.215 52.2177 104.982 52.3788 104.743 52.5339C104.122 52.9159 103.542 53.2262 103.004 53.4649C101.498 54.0975 100.476 54.0319 99.9385 53.268C99.4604 52.6115 99.2692 51.8238 99.3648 50.9047ZM112.435 63.0253C112.231 62.8105 111.974 62.5956 111.664 62.3808C111.448 62.2256 111.168 62.0466 110.821 61.8437C110.331 61.5573 109.733 61.1634 109.028 60.6621L108.15 60.0534L107.271 59.4267L106.805 59.1403L106.339 58.8359C105.968 58.5972 105.699 58.3884 105.532 58.2093C105.042 57.6961 105.066 57.1351 105.604 56.5264C105.903 56.1803 106.411 55.8461 107.128 55.5238L107.558 55.3269L107.988 55.1478C108.299 54.9927 108.562 54.8375 108.777 54.6824C110.666 53.3217 111.873 51.776 112.399 50.0454C112.674 49.1144 112.721 48.0939 112.542 46.9839C112.375 45.9097 112.01 44.9011 111.448 43.9582C110.863 42.9676 110.146 42.1918 109.297 41.6308C108.377 41.0101 107.391 40.6998 106.339 40.6998C102.753 40.6998 100.052 42.1202 98.2353 44.9608C96.7174 47.3479 95.9584 50.4214 95.9584 54.1811V61.7005C95.9584 61.975 95.9405 62.4285 95.9046 63.0611L95.8508 63.7952L95.8329 64.5471C95.821 65.7526 96.0122 66.6657 96.4066 67.2863C96.813 67.9428 97.2552 68.283 97.7333 68.3068C98.1277 68.3307 98.5162 68.1218 98.8987 67.6802C99.2453 67.2863 99.5202 66.785 99.7234 66.1763C99.9266 65.5795 100.01 65.0544 99.9744 64.6008L99.9385 64.207L99.9026 63.7594C99.8787 63.4013 99.8608 63.079 99.8489 62.7926C99.825 62.0048 99.8668 61.3782 99.9744 60.9127C100.273 59.6237 101.092 59.5163 102.431 60.5905C103.172 61.1872 104.02 61.9034 104.976 62.7389L106.231 63.831L107.468 64.941L107.863 65.2991L108.275 65.675C108.61 65.9615 108.903 66.1942 109.154 66.3733C109.847 66.8626 110.516 67.1013 111.162 67.0894C111.879 67.0536 112.417 66.7671 112.775 66.23C113.11 65.7168 113.223 65.0962 113.116 64.3681C113.044 63.8907 112.817 63.4431 112.435 63.0253Z" fill="black"/>
<path d="M128.785 36.7074C128.247 36.1822 127.572 35.9495 126.759 36.0091C125.887 36.0688 125.337 36.4866 125.11 37.2624C124.859 38.1098 125.098 39.2317 125.827 40.6282C125.958 40.8669 126.12 41.1534 126.311 41.4876L126.795 42.3111C127.19 42.9795 127.458 43.4927 127.602 43.8508C127.901 44.5669 128.14 45.1995 128.319 45.7486C128.57 46.5244 128.737 47.2346 128.821 47.8791C129.036 49.5501 128.707 50.8451 127.835 51.7641C127.488 52.1341 126.759 52.0386 125.648 51.4777L124.966 51.1196C124.668 50.9644 124.441 50.851 124.285 50.7794C123.771 50.5288 123.359 50.3796 123.048 50.3318C121.805 50.1528 120.849 50.302 120.18 50.7794C119.713 51.1136 119.128 51.8775 118.423 53.0711C116.713 55.9833 115.542 58.5793 114.909 60.859C114.574 61.6348 114.484 62.4465 114.64 63.2939C114.795 64.0816 115.13 64.7381 115.644 65.2633C116.17 65.7884 116.749 66.0271 117.383 65.9794C118.1 65.9078 118.763 65.4662 119.373 64.6545C120.162 63.6161 120.717 62.1361 121.04 60.2145L121.219 59.0508C121.291 58.5972 121.363 58.2153 121.435 57.905C121.614 57.0337 121.853 56.2758 122.152 55.6312C122.654 56.0132 123.138 56.5682 123.604 57.2962C123.759 57.5469 123.951 57.8751 124.178 58.2809L124.447 58.7643L124.733 59.2298C125.176 59.9818 125.6 60.5308 126.006 60.8769C126.556 61.3543 127.184 61.6229 127.889 61.6826C129.168 61.79 130.231 61.3126 131.08 60.2503C131.737 59.4387 132.233 58.3167 132.568 56.8845C134.265 49.556 133.004 42.8303 128.785 36.7074Z" fill="black"/>
<path d="M163.978 47.6642C163.321 47.1033 162.652 47.0495 161.971 47.5031C161.708 47.6821 161.403 47.9507 161.056 48.3088L160.626 48.8459L160.16 49.383C159.383 50.3139 158.749 50.8868 158.259 51.1017C157.518 51.4597 156.759 51.2688 155.982 50.5288C155.612 50.1588 155.355 49.6575 155.212 49.0249C155.152 48.7981 155.098 48.5117 155.05 48.1655L154.943 47.2704C154.847 46.5423 154.704 45.9694 154.512 45.5516C154.225 44.9668 153.777 44.5073 153.168 44.1731C151.59 43.3137 149.911 43.6598 148.13 45.2115C146.552 46.5721 145.184 48.5952 144.024 51.2807C142.877 53.8827 142.261 56.3116 142.178 58.5674C142.094 61.0261 142.71 62.6016 144.024 63.2939C145.65 64.1413 147.006 63.9563 148.094 62.7389C148.966 61.7363 149.474 60.3756 149.618 58.6569C149.63 58.4659 149.606 57.8333 149.546 56.7591C149.51 56.234 149.486 55.7804 149.474 55.3985C149.463 54.8853 149.463 54.4198 149.474 54.002C149.558 51.603 150.126 50.4691 151.178 50.6004C151.68 50.6481 152.05 50.9883 152.289 51.6209C152.445 52.0148 152.594 52.701 152.737 53.6798L152.809 54.2885L152.899 54.8614C152.97 55.303 153.048 55.679 153.132 55.9893C153.359 56.7651 153.7 57.2962 154.154 57.5827C154.811 58.0124 155.421 58.1735 155.982 58.0661C156.425 58.0064 156.909 57.7558 157.435 57.3142L157.757 57.0277L158.098 56.7233C158.385 56.4608 158.618 56.2579 158.797 56.1146C159.347 55.673 159.885 55.4104 160.411 55.3269C160.781 55.9117 160.984 56.7353 161.02 57.7975C161.044 58.2034 161.038 58.6927 161.002 59.2656L160.931 60.7695C160.859 62.0108 160.877 62.9477 160.984 63.5803C161.152 64.4994 161.528 65.1618 162.114 65.5676C164.014 66.8805 165.21 66.5404 165.7 64.5471C165.879 63.8907 165.986 63.0015 166.022 61.8795L166.04 61.2171V60.5905C166.04 60.113 166.04 59.7788 166.04 59.5879L166.094 58.9434L166.13 58.263C166.178 57.6782 166.208 57.2187 166.22 56.8845C166.291 55.7745 166.309 54.8136 166.273 54.002C166.178 51.7701 165.7 50.0036 164.839 48.7026C164.54 48.261 164.253 47.9149 163.978 47.6642Z" fill="black"/>
<path d="M173.57 53.7872C173.475 52.9756 173.684 51.9312 174.198 50.6541C174.616 49.6038 175.124 48.6489 175.722 47.7896C176.2 47.1212 177.042 46.5542 178.249 46.0887C179.612 45.5516 180.479 45.6889 180.849 46.5005C181.255 47.4076 181.01 48.5534 180.114 49.938C179.373 51.0718 178.53 51.961 177.586 52.6056C177.096 52.9398 176.451 53.2023 175.65 53.3933C175.399 53.453 175.052 53.5186 174.61 53.5902L174.09 53.6977L173.57 53.7872ZM185.08 59.1582C184.542 59.1582 183.963 59.2656 183.341 59.4805C183.114 59.5521 182.839 59.6595 182.516 59.8027L181.728 60.1429C180.377 60.6919 179.2 60.8292 178.196 60.5547C177.239 60.2921 176.385 59.7968 175.632 59.0687C174.831 58.3048 174.335 57.4633 174.144 56.5443C176.403 56.5562 178.453 55.9177 180.293 54.6286C182.206 53.2799 183.437 51.5254 183.986 49.3651C184.357 47.8492 184.333 46.4528 183.915 45.1757C183.52 43.9821 182.833 43.0392 181.853 42.3469C180.873 41.6547 179.755 41.3205 178.5 41.3443C177.174 41.3682 175.877 41.7979 174.61 42.6334C173.164 43.5763 171.998 44.8594 171.114 46.4826C170.289 47.9865 169.757 49.6754 169.518 51.5493C169.291 53.3515 169.357 55.1419 169.716 56.9203C170.086 58.7226 170.714 60.316 171.598 61.7005C173.714 64.9828 176.845 66.2062 180.992 65.3707C182.821 64.9887 184.387 64.3979 185.69 63.5982C186.67 62.9895 187.1 62.1779 186.981 61.1634C186.861 60.1369 186.228 59.4685 185.08 59.1582C184.985 59.1582 184.961 59.1701 185.008 59.194C185.044 59.2059 185.104 59.2179 185.188 59.2298C185.283 59.2417 185.331 59.2477 185.331 59.2477C185.331 59.2358 185.247 59.2059 185.08 59.1582Z" fill="black"/>
<path d="M67.4524 79.944C67.2014 79.8963 66.9265 79.9022 66.6277 79.9619C65.3966 80.2126 64.536 81.1555 64.046 82.7907C63.9623 83.089 63.8787 83.4411 63.795 83.847L63.6874 84.3662L63.5978 84.9033C63.4305 85.8104 63.2811 86.4549 63.1496 86.8368C62.8388 87.7559 62.3129 88.4839 61.5719 89.021C60.8667 89.5223 60.0779 89.7909 59.2054 89.8267C58.3328 89.8625 57.5261 89.6596 56.785 89.218C55.9962 88.7405 55.4105 88.0542 55.0281 87.1591C54.8488 86.7294 54.7053 86.0252 54.5978 85.0465L54.544 84.4378L54.4723 83.8291C54.4245 83.3516 54.3707 82.9458 54.3109 82.6116C53.9404 80.7258 52.9663 79.8247 51.3886 79.9082C49.4045 80.0156 48.4663 81.3763 48.5739 83.9902C48.6217 84.957 48.8129 86.0252 49.1476 87.1949C49.4225 88.1617 49.7392 89.0031 50.0978 89.7193C50.7432 91.0322 51.55 92.0348 52.5181 92.727C53.4384 93.3716 54.6336 93.837 56.1038 94.1235C56.4504 94.1832 56.9464 94.1951 57.5918 94.1593C57.795 94.1474 58.0818 94.1235 58.4524 94.0877L59.3309 94.0161C60.801 93.9087 61.7691 94.0459 62.2352 94.4278C63.2631 95.2633 63.4783 96.4808 62.8807 98.0801C62.3428 99.5005 61.536 100.527 60.4603 101.16C59.3727 101.804 58.0579 102.049 56.5161 101.894C55.9185 101.834 55.2432 101.709 54.4902 101.518L53.4862 101.249L52.5181 100.963C51.0599 100.521 49.9484 100.396 49.1834 100.587C48.1197 100.861 47.7731 101.738 48.1436 103.218C48.6217 105.056 50.1157 106.232 52.6257 106.745C53.6057 106.936 54.6994 107.02 55.9065 106.996C56.8866 106.972 57.8727 106.883 58.8647 106.727C63.3348 106.035 66.4066 103.039 68.0799 97.74C68.7372 95.6632 69.1615 93.288 69.3528 90.6144C69.5082 88.4541 69.5082 86.1923 69.3528 83.8291C69.3169 83.4352 69.2751 83.0652 69.2273 82.719C69.1436 82.2655 69.042 81.8656 68.9225 81.5195C68.5998 80.6124 68.1098 80.0872 67.4524 79.944Z" fill="black"/>
<path d="M75.7891 90.4533C75.6934 89.6417 75.9026 88.5973 76.4165 87.3202C76.8349 86.2699 77.3428 85.315 77.9405 84.4557C78.4185 83.7873 79.2612 83.2203 80.4683 82.7548C81.8309 82.2177 82.6974 82.355 83.068 83.1666C83.4743 84.0737 83.2293 85.2195 82.3329 86.6041C81.5919 87.738 80.7492 88.6272 79.805 89.2717C79.315 89.6059 78.6695 89.8685 77.8687 90.0594C77.6177 90.1191 77.2711 90.1847 76.8289 90.2564L76.309 90.3638L75.7891 90.4533ZM87.299 95.8243C86.7612 95.8243 86.1815 95.9317 85.56 96.1466C85.3329 96.2182 85.058 96.3256 84.7353 96.4688L83.9464 96.809C82.5958 97.358 81.4185 97.4953 80.4146 97.2208C79.4584 96.9582 78.6038 96.4629 77.8508 95.7348C77.05 94.9709 76.554 94.1295 76.3628 93.2104C78.6217 93.2224 80.6715 92.5838 82.5122 91.2948C84.4245 89.946 85.6556 88.1915 86.2054 86.0312C86.5759 84.5153 86.552 83.1189 86.1337 81.8418C85.7393 80.6482 85.052 79.7053 84.0719 79.013C83.0919 78.3208 81.9743 77.9866 80.7193 78.0105C79.3926 78.0343 78.0958 78.464 76.8289 79.2995C75.3827 80.2424 74.2173 81.5255 73.3329 83.1487C72.5082 84.6526 71.9763 86.3415 71.7372 88.2154C71.5102 90.0177 71.5759 91.808 71.9345 93.5864C72.305 95.3887 72.9325 96.9821 73.8169 98.3666C75.9325 101.649 79.064 102.872 83.2114 102.037C85.0401 101.655 86.6058 101.064 87.9086 100.264C88.8887 99.6556 89.319 98.844 89.1994 97.8295C89.0799 96.803 88.4464 96.1346 87.299 95.8243C87.2034 95.8243 87.1795 95.8362 87.2273 95.8601C87.2632 95.8721 87.3229 95.884 87.4066 95.8959C87.5022 95.9079 87.55 95.9138 87.55 95.9138C87.55 95.9019 87.4664 95.8721 87.299 95.8243Z" fill="black"/>
<path d="M105.532 96.254C104.767 96.254 103.62 96.2301 102.09 96.1824L100.369 96.1108L98.6656 96.0929C96.5501 96.0929 95.4624 95.1858 95.4026 93.3716C95.3787 92.6912 95.5042 91.8498 95.7791 90.8472C95.8867 90.4652 96.0182 90.0296 96.1736 89.5402L96.4066 88.9136L96.6218 88.3049C98.0202 84.39 98.809 81.3464 98.9883 79.1742C99.06 78.3745 98.9285 77.7121 98.5939 77.1869C98.2234 76.5662 97.6377 76.2559 96.8369 76.2559C95.7373 76.2559 94.8409 76.978 94.1477 78.4222C93.8967 78.9593 93.6755 79.5979 93.4843 80.3379C93.4006 80.6124 93.3289 80.9108 93.2692 81.2331C93.2214 81.4598 93.1616 81.7284 93.0899 82.0387C93.0779 82.1461 93.0421 82.3431 92.9823 82.6295L92.9285 82.8265L92.8927 83.0413C92.8568 83.2203 92.8269 83.3815 92.803 83.5247C92.6237 84.396 92.4624 85.2195 92.319 85.9954C91.8767 88.3944 91.566 90.5428 91.3867 92.4406C90.8249 98.2413 91.4704 101.267 93.323 101.518C95.8568 101.876 99.06 101.804 102.933 101.303C103.016 101.291 103.124 101.273 103.255 101.249C103.411 101.225 103.578 101.201 103.757 101.177C104.211 101.106 104.63 101.04 105.012 100.98C106.112 100.778 106.662 100.61 106.662 100.479C107.355 100.193 107.839 99.8048 108.114 99.3155C108.365 98.8739 108.413 98.4084 108.257 97.919C108.102 97.4416 107.791 97.0537 107.325 96.7553C106.811 96.4211 106.213 96.254 105.532 96.254Z" fill="black"/>
<path d="M124.787 96.254C124.022 96.254 122.875 96.2301 121.345 96.1824L119.624 96.1108L117.921 96.0929C115.805 96.0929 114.717 95.1858 114.658 93.3716C114.634 92.6912 114.759 91.8498 115.034 90.8472C115.142 90.4652 115.273 90.0296 115.429 89.5402L115.662 88.9136L115.877 88.3049C117.275 84.39 118.064 81.3464 118.243 79.1742C118.315 78.3745 118.184 77.7121 117.849 77.1869C117.478 76.5662 116.893 76.2559 116.092 76.2559C114.992 76.2559 114.096 76.978 113.403 78.4222C113.152 78.9593 112.931 79.5979 112.739 80.3379C112.656 80.6124 112.584 80.9108 112.524 81.2331C112.476 81.4598 112.417 81.7284 112.345 82.0387C112.333 82.1461 112.297 82.3431 112.237 82.6295L112.184 82.8265L112.148 83.0413C112.112 83.2203 112.082 83.3815 112.058 83.5247C111.879 84.396 111.717 85.2195 111.574 85.9954C111.132 88.3944 110.821 90.5428 110.642 92.4406C110.08 98.2413 110.725 101.267 112.578 101.518C115.112 101.876 118.315 101.804 122.188 101.303C122.271 101.291 122.379 101.273 122.51 101.249C122.666 101.225 122.833 101.201 123.012 101.177C123.466 101.106 123.885 101.04 124.267 100.98C125.367 100.778 125.917 100.61 125.917 100.479C126.61 100.193 127.094 99.8048 127.369 99.3155C127.62 98.8739 127.668 98.4084 127.512 97.919C127.357 97.4416 127.046 97.0537 126.58 96.7553C126.066 96.4211 125.468 96.254 124.787 96.254Z" fill="black"/>
<path d="M140.492 79.0668C142.835 79.0668 144.998 80.3618 146.982 82.9518C148.978 85.5418 149.976 88.5257 149.976 91.9035C150 94.7083 148.309 97.1134 144.903 99.1185C141.903 100.849 138.843 101.732 135.723 101.768C133.763 101.768 132.275 100.658 131.259 98.4382C130.554 96.803 130.202 94.8814 130.202 92.6733C130.202 89.2955 131.002 86.3057 132.604 83.7037C134.528 80.6363 137.158 79.0906 140.492 79.0668ZM135.455 92.4943C135.431 92.6136 135.407 92.6972 135.383 92.7449C135.371 92.7807 135.221 93.0135 134.935 93.4432C134.648 93.8728 134.504 94.2608 134.504 94.6069C134.504 95.1679 134.821 95.7706 135.455 96.4151L136.799 97.0775C137.182 97.2566 137.785 97.358 138.61 97.3819L140.134 97.2566C140.887 97.1969 141.986 96.3734 143.433 94.7859C144.879 93.1985 145.614 91.3902 145.638 89.3612C145.638 87.8334 145.196 86.425 144.311 85.136C143.259 83.6679 141.945 82.9339 140.367 82.9339L139.739 82.9697C138.353 82.9697 137.289 83.9424 136.548 85.8879C135.891 87.7021 135.526 89.9043 135.455 92.4943Z" fill="black"/>
<path d="M174.233 80.1589C172.668 80.3976 171.969 81.6389 172.136 83.8828C172.172 84.2886 172.231 84.7541 172.315 85.2792C172.375 85.6134 172.465 86.0729 172.584 86.6578C172.799 87.7917 172.913 88.5436 172.925 88.9136C172.937 89.5462 172.847 90.3817 172.656 91.4201C172.429 92.6375 172.124 93.7237 171.741 94.6785C170.678 97.2924 169.345 98.1935 167.743 97.3819C167.397 97.2029 166.949 96.6777 166.399 95.8064C166.291 95.6393 166.172 95.4364 166.04 95.1977L165.664 94.5711C165.329 94.022 165.066 93.5983 164.875 93.2999C164.241 92.3093 163.674 91.629 163.172 91.259C162.502 90.7815 161.869 90.7278 161.271 91.0978C160.65 91.4798 160.261 92.2436 160.106 93.3895C160.046 93.7833 160.01 94.2727 159.998 94.8575V95.1977L159.98 95.5379C159.98 95.8004 159.974 96.0033 159.963 96.1466C159.927 97.0417 159.628 97.925 159.066 98.7963C158.624 99.4527 158.313 99.7452 158.134 99.6735C158.002 99.6258 157.781 99.2379 157.47 98.5098C156.968 97.3521 156.729 96.0571 156.753 94.6248C156.765 94.0996 156.813 93.4551 156.897 92.6912L157.004 91.7065L157.112 90.686L157.13 90.5607L157.148 90.3996L157.184 90.0594C157.208 89.773 157.225 89.5104 157.237 89.2717C157.261 88.5794 157.237 88.0065 157.166 87.553C156.939 86.2162 156.269 85.7805 155.158 86.246C154.178 86.6518 153.514 87.8812 153.168 89.9341C153.048 90.6383 152.959 91.4738 152.899 92.4406C152.887 92.739 152.875 93.109 152.863 93.5506L152.845 93.8012V94.034C152.833 94.2011 152.827 94.3383 152.827 94.4458C152.648 97.7042 153.335 100.414 154.889 102.574C155.725 103.732 156.777 104.293 158.044 104.257C159.251 104.221 160.345 103.672 161.325 102.61C161.6 102.299 161.845 101.87 162.06 101.321L162.311 100.676C162.395 100.437 162.467 100.252 162.526 100.121C162.718 99.7392 162.945 99.5064 163.208 99.4229C163.542 99.3393 164.008 99.4468 164.606 99.7452L165.359 100.139L166.13 100.551C166.751 100.873 167.289 101.118 167.743 101.285C168.998 101.762 170.146 101.876 171.186 101.625C172.704 101.243 174.239 99.9302 175.793 97.6863C177.263 95.5737 178.369 93.1925 179.11 90.5428C179.887 87.738 180.03 85.4105 179.54 83.5605C178.967 81.436 177.616 80.2961 175.488 80.141C175.022 80.1051 174.604 80.1111 174.233 80.1589Z" fill="black"/>
<defs>
<filter id="filter0_ii" x="-6" y="-6" width="157" height="157" filterUnits="userSpaceOnUse" color-interpolation-filters="sRGB">
<feFlood flood-opacity="0" result="BackgroundImageFix"/>
<feBlend mode="normal" in="SourceGraphic" in2="BackgroundImageFix" result="shape"/>
<feColorMatrix in="SourceAlpha" type="matrix" values="0 0 0 0 0 0 0 0 0 0 0 0 0 0 0 0 0 0 127 0" result="hardAlpha"/>
<feOffset dx="6" dy="6"/>
<feGaussianBlur stdDeviation="7.5"/>
<feComposite in2="hardAlpha" operator="arithmetic" k2="-1" k3="1"/>
<feColorMatrix type="matrix" values="0 0 0 0 0 0 0 0 0 0 0 0 0 0 0 0 0 0 0.25 0"/>
<feBlend mode="normal" in2="shape" result="effect1_innerShadow"/>
<feColorMatrix in="SourceAlpha" type="matrix" values="0 0 0 0 0 0 0 0 0 0 0 0 0 0 0 0 0 0 127 0" result="hardAlpha"/>
<feOffset dx="-6" dy="-6"/>
<feGaussianBlur stdDeviation="5"/>
<feComposite in2="hardAlpha" operator="arithmetic" k2="-1" k3="1"/>
<feColorMatrix type="matrix" values="0 0 0 0 1 0 0 0 0 1 0 0 0 0 1 0 0 0 0.35 0"/>
<feBlend mode="normal" in2="effect1_innerShadow" result="effect2_innerShadow"/>
</filter>
<linearGradient id="paint0_linear" x1="121.71" y1="36.3781" x2="-54.642" y2="137.972" gradientUnits="userSpaceOnUse">
<stop stop-color="#F2EC3B"/>
<stop offset="1" stop-color="#80F9C0"/>
</linearGradient>
</defs>
</svg>
